<?xml version="1.0" encoding="UTF-8"?>
<svg width="474px" height="234px" viewBox="0 0 474 234" version="1.1" xmlns="http://www.w3.org/2000/svg" xmlns:xlink="http://www.w3.org/1999/xlink">
    <!-- Generator: Sketch 52.6 (67491) - http://www.bohemiancoding.com/sketch -->
    <title>Group 4</title>
    <desc>Created with Sketch.</desc>
    <g id="Page-1" stroke="none" stroke-width="1" fill="none" fill-rule="evenodd">
        <g id="Tech-Specs" transform="translate(-342.000000, -4926.000000)">
            <g id="Group-4" transform="translate(344.000000, 4926.000000)">
                <g id="Group" transform="translate(0.000000, 6.000000)">
                    <rect id="Rectangle" stroke="#000000" stroke-width="2" x="-1" y="-1" width="216" height="222"></rect>
                    <polygon id="Path-2" fill="#1B1B1B" points="171 220 173.285681 228 192.567306 228 196 220"></polygon>
                    <polygon id="Path-2" fill="#1B1B1B" points="20 220 22.2856813 228 41.567306 228 45 220"></polygon>
                    <rect id="Rectangle" stroke="#1B1B1B" stroke-width="2" x="4" y="4" width="206" height="160"></rect>
                </g>
                <g id="power-cable" transform="translate(282.000000, 0.000000)">
                    <rect id="Rectangle" fill="#B7B7B7" x="180" y="23" width="3" height="13" rx="1.5"></rect>
                    <rect id="Rectangle" fill="#B7B7B7" x="167" y="23" width="3" height="13" rx="1.5"></rect>
                    <rect id="Rectangle" stroke="#1B1B1B" stroke-width="7" x="3.5" y="9.5" width="115" height="61" rx="30.5"></rect>
                    <rect id="Rectangle" fill="#1B1B1B" x="81" y="6" width="78" height="7"></rect>
                    <rect id="Rectangle" fill="#1B1B1B" x="80" y="67" width="84" height="7"></rect>
                    <rect id="Rectangle" fill="#1B1B1B" x="159" y="0" width="31" height="26" rx="6"></rect>
                    <rect id="Rectangle" fill="#1B1B1B" x="159" y="13" width="31" height="13"></rect>
                    <rect id="Rectangle" fill="#1B1B1B" x="158" y="61" width="32" height="18" rx="9"></rect>
                    <rect id="Rectangle" fill="#1B1B1B" x="175" y="61" width="15" height="18"></rect>
                </g>
                <g id="Group-2" transform="translate(308.500000, 179.500000) rotate(-90.000000) translate(-308.500000, -179.500000) translate(262.000000, 155.000000)">
                    <rect id="Rectangle" stroke="#1B1B1B" stroke-width="3" x="1.5" y="4.5" width="59" height="40" rx="20"></rect>
                    <rect id="Rectangle" fill="#1B1B1B" x="43" y="3" width="38" height="3"></rect>
                    <rect id="Rectangle" fill="#1B1B1B" x="23" y="43" width="59" height="3"></rect>
                    <g id="Group-3" transform="translate(80.000000, 0.000000)">
                        <rect id="Rectangle" fill="#1B1B1B" x="0" y="0" width="9" height="9" rx="4.5"></rect>
                        <rect id="Rectangle" fill="#1B1B1B" x="5" y="0" width="5" height="9"></rect>
                        <rect id="Rectangle" fill="#B7B7B7" transform="translate(11.500000, 4.500000) rotate(90.000000) translate(-11.500000, -4.500000) " x="8" y="3" width="7" height="3"></rect>
                    </g>
                    <g id="Group-3" transform="translate(80.000000, 40.000000)">
                        <rect id="Rectangle" fill="#1B1B1B" x="0" y="0" width="9" height="9" rx="4.5"></rect>
                        <rect id="Rectangle" fill="#1B1B1B" x="5" y="0" width="5" height="9"></rect>
                        <rect id="Rectangle" fill="#B7B7B7" transform="translate(11.500000, 4.500000) rotate(90.000000) translate(-11.500000, -4.500000) " x="8" y="3" width="7" height="3"></rect>
                    </g>
                </g>
                <g id="Group-2" transform="translate(377.500000, 179.500000) rotate(-90.000000) translate(-377.500000, -179.500000) translate(331.000000, 155.000000)">
                    <rect id="Rectangle" stroke="#1B1B1B" stroke-width="3" x="1.5" y="4.5" width="59" height="40" rx="20"></rect>
                    <rect id="Rectangle" fill="#1B1B1B" x="43" y="3" width="38" height="3"></rect>
                    <rect id="Rectangle" fill="#1B1B1B" x="23" y="43" width="59" height="3"></rect>
                    <g id="Group-3" transform="translate(80.000000, 0.000000)">
                        <rect id="Rectangle" fill="#1B1B1B" x="0" y="0" width="9" height="9" rx="4.5"></rect>
                        <rect id="Rectangle" fill="#1B1B1B" x="5" y="0" width="5" height="9"></rect>
                        <rect id="Rectangle" fill="#B7B7B7" transform="translate(11.500000, 4.500000) rotate(90.000000) translate(-11.500000, -4.500000) " x="8" y="3" width="7" height="3"></rect>
                    </g>
                    <g id="Group-3" transform="translate(80.000000, 40.000000)">
                        <rect id="Rectangle" fill="#1B1B1B" x="0" y="0" width="9" height="9" rx="4.5"></rect>
                        <rect id="Rectangle" fill="#1B1B1B" x="5" y="0" width="5" height="9"></rect>
                        <rect id="Rectangle" fill="#B7B7B7" transform="translate(11.500000, 4.500000) rotate(90.000000) translate(-11.500000, -4.500000) " x="8" y="3" width="7" height="3"></rect>
                    </g>
                </g>
                <g id="Group-2" transform="translate(446.500000, 179.500000) rotate(-90.000000) translate(-446.500000, -179.500000) translate(400.000000, 155.000000)">
                    <rect id="Rectangle" stroke="#1B1B1B" stroke-width="3" x="1.5" y="4.5" width="59" height="40" rx="20"></rect>
                    <rect id="Rectangle" fill="#1B1B1B" x="43" y="3" width="38" height="3"></rect>
                    <rect id="Rectangle" fill="#1B1B1B" x="23" y="43" width="59" height="3"></rect>
                    <g id="Group-3" transform="translate(80.000000, 0.000000)">
                        <rect id="Rectangle" fill="#1B1B1B" x="0" y="0" width="9" height="9" rx="4.5"></rect>
                        <rect id="Rectangle" fill="#1B1B1B" x="5" y="0" width="5" height="9"></rect>
                        <rect id="Rectangle" fill="#B7B7B7" transform="translate(11.500000, 4.500000) rotate(90.000000) translate(-11.500000, -4.500000) " x="8" y="3" width="7" height="3"></rect>
                    </g>
                    <g id="Group-3" transform="translate(80.000000, 40.000000)">
                        <rect id="Rectangle" fill="#1B1B1B" x="0" y="0" width="9" height="9" rx="4.5"></rect>
                        <rect id="Rectangle" fill="#1B1B1B" x="5" y="0" width="5" height="9"></rect>
                        <rect id="Rectangle" fill="#B7B7B7" transform="translate(11.500000, 4.500000) rotate(90.000000) translate(-11.500000, -4.500000) " x="8" y="3" width="7" height="3"></rect>
                    </g>
                </g>
            </g>
        </g>
    </g>
</svg>