<svg height="237" viewBox="0 0 475 237" width="475" xmlns="http://www.w3.org/2000/svg"><g fill="none" fill-rule="evenodd"><g transform="translate(285)"><rect fill="#b7b7b7" height="13" rx="1.5" width="3" x="180" y="23"/><rect fill="#b7b7b7" height="13" rx="1.5" width="3" x="167" y="23"/><rect height="61" rx="30.5" stroke="#343a3f" stroke-width="7" width="115" x="3.5" y="9.5"/><g fill="#343a3f"><path d="m81 6h78v7h-78z"/><path d="m80 67h84v7h-84z"/><rect height="26" rx="6" width="31" x="159"/><path d="m159 13h31v13h-31z"/><rect height="18" rx="9" width="32" x="158" y="61"/><path d="m175 61h15v18h-15z"/></g><g transform="matrix(0 -1 1 0 2 226)"><rect height="40" rx="20" stroke="#343a3f" stroke-width="3" width="59" x="1.5" y="4.5"/><path d="m37 3h44v3h-44z" fill="#343a3f"/><path d="m23 43h59v3h-59z" fill="#343a3f"/><g transform="translate(80)"><rect fill="#343a3f" height="9" rx="4.5" width="9"/><path d="m5 0h5v9h-5z" fill="#343a3f"/><path d="m8 3h7v3h-7z" fill="#b7b7b7" transform="matrix(0 1 -1 0 16 -7)"/></g><g transform="translate(80 40)"><rect fill="#343a3f" height="9" rx="4.5" width="9"/><path d="m5 0h5v9h-5z" fill="#343a3f"/><path d="m8 3h7v3h-7z" fill="#b7b7b7" transform="matrix(0 1 -1 0 16 -7)"/></g></g><g transform="matrix(0 -1 1 0 71 226)"><rect height="40" rx="20" stroke="#343a3f" stroke-width="3" width="59" x="1.5" y="4.5"/><path d="m38 3h43v3h-43z" fill="#343a3f"/><path d="m23 43h59v3h-59z" fill="#343a3f"/><g transform="translate(80)"><rect fill="#343a3f" height="9" rx="4.5" width="9"/><path d="m5 0h5v9h-5z" fill="#343a3f"/><path d="m8 3h7v3h-7z" fill="#b7b7b7" transform="matrix(0 1 -1 0 16 -7)"/></g><g transform="translate(80 40)"><rect fill="#343a3f" height="9" rx="4.5" width="9"/><path d="m5 0h5v9h-5z" fill="#343a3f"/><path d="m8 3h7v3h-7z" fill="#b7b7b7" transform="matrix(0 1 -1 0 16 -7)"/></g></g><g transform="matrix(0 -1 1 0 140 226)"><rect height="40" rx="20" stroke="#343a3f" stroke-width="3" width="59" x="1.5" y="4.5"/><path d="m43 3h38v3h-38z" fill="#343a3f"/><path d="m23 43h59v3h-59z" fill="#343a3f"/><g transform="translate(80)"><rect fill="#343a3f" height="9" rx="4.5" width="9"/><path d="m5 0h5v9h-5z" fill="#343a3f"/><path d="m8 3h7v3h-7z" fill="#b7b7b7" transform="matrix(0 1 -1 0 16 -7)"/></g><g transform="translate(80 40)"><rect fill="#343a3f" height="9" rx="4.5" width="9"/><path d="m5 0h5v9h-5z" fill="#343a3f"/><path d="m8 3h7v3h-7z" fill="#b7b7b7" transform="matrix(0 1 -1 0 16 -7)"/></g></g></g><g transform="translate(0 4)"><rect fill="#dce1e7" height="225" rx="1" width="219"/><path d="m174 225 2.285681 8h19.281625l3.432694-8z" fill="#a2a9b0"/><path d="m23 225 2.2856813 8h19.2816247l3.432694-8z" fill="#a2a9b0"/><path d="m6 6h207v161h-207z" fill="#c1c7cd" stroke="#a2a9b0" stroke-width="8"/></g></g></svg>