<?xml version="1.0" encoding="UTF-8"?>
<svg width="189px" height="129px" viewBox="0 0 189 129" version="1.1" xmlns="http://www.w3.org/2000/svg" xmlns:xlink="http://www.w3.org/1999/xlink">
    <!-- Generator: Sketch 52.6 (67491) - http://www.bohemiancoding.com/sketch -->
    <title>Group 2</title>
    <desc>Created with Sketch.</desc>
    <g id="Page-1" stroke="none" stroke-width="1" fill="none" fill-rule="evenodd">
        <g id="Setup-Guide" transform="translate(-494.000000, -1312.000000)">
            <g id="Group-2" transform="translate(518.500000, 1358.500000) rotate(-90.000000) translate(-518.500000, -1358.500000) translate(472.000000, 1334.000000)">
                <rect id="Rectangle" stroke="#343A3F" stroke-width="3" x="1.5" y="4.5" width="59" height="40" rx="20"></rect>
                <rect id="Rectangle" fill="#343A3F" x="43" y="3" width="38" height="3"></rect>
                <rect id="Rectangle" fill="#343A3F" x="23" y="43" width="59" height="3"></rect>
                <g id="Group-3" transform="translate(80.000000, 0.000000)">
                    <rect id="Rectangle" fill="#343A3F" x="0" y="0" width="9" height="9" rx="4.5"></rect>
                    <rect id="Rectangle" fill="#343A3F" x="5" y="0" width="5" height="9"></rect>
                    <rect id="Rectangle" fill="#B7B7B7" transform="translate(11.500000, 4.500000) rotate(90.000000) translate(-11.500000, -4.500000) " x="8" y="3" width="7" height="3"></rect>
                </g>
                <g id="Group-3" transform="translate(80.000000, 40.000000)">
                    <rect id="Rectangle" fill="#343A3F" x="0" y="0" width="9" height="9" rx="4.5"></rect>
                    <rect id="Rectangle" fill="#343A3F" x="5" y="0" width="5" height="9"></rect>
                    <rect id="Rectangle" fill="#B7B7B7" transform="translate(11.500000, 4.500000) rotate(90.000000) translate(-11.500000, -4.500000) " x="8" y="3" width="7" height="3"></rect>
                </g>
            </g>
            <g id="Group-2" transform="translate(588.500000, 1358.500000) rotate(-90.000000) translate(-588.500000, -1358.500000) translate(542.000000, 1334.000000)">
                <rect id="Rectangle" stroke="#343A3F" stroke-width="3" x="1.5" y="4.5" width="59" height="40" rx="20"></rect>
                <rect id="Rectangle" fill="#343A3F" x="43" y="3" width="38" height="3"></rect>
                <rect id="Rectangle" fill="#343A3F" x="23" y="43" width="59" height="3"></rect>
                <g id="Group-3" transform="translate(80.000000, 0.000000)">
                    <rect id="Rectangle" fill="#343A3F" x="0" y="0" width="9" height="9" rx="4.5"></rect>
                    <rect id="Rectangle" fill="#343A3F" x="5" y="0" width="5" height="9"></rect>
                    <rect id="Rectangle" fill="#B7B7B7" transform="translate(11.500000, 4.500000) rotate(90.000000) translate(-11.500000, -4.500000) " x="8" y="3" width="7" height="3"></rect>
                </g>
                <g id="Group-3" transform="translate(80.000000, 40.000000)">
                    <rect id="Rectangle" fill="#343A3F" x="0" y="0" width="9" height="9" rx="4.5"></rect>
                    <rect id="Rectangle" fill="#343A3F" x="5" y="0" width="5" height="9"></rect>
                    <rect id="Rectangle" fill="#B7B7B7" transform="translate(11.500000, 4.500000) rotate(90.000000) translate(-11.500000, -4.500000) " x="8" y="3" width="7" height="3"></rect>
                </g>
            </g>
            <g id="Group-2" transform="translate(658.500000, 1358.500000) rotate(-90.000000) translate(-658.500000, -1358.500000) translate(612.000000, 1334.000000)">
                <rect id="Rectangle" stroke="#343A3F" stroke-width="3" x="1.5" y="4.5" width="59" height="40" rx="20"></rect>
                <rect id="Rectangle" fill="#343A3F" x="43" y="3" width="38" height="3"></rect>
                <rect id="Rectangle" fill="#343A3F" x="23" y="43" width="59" height="3"></rect>
                <g id="Group-3" transform="translate(80.000000, 0.000000)">
                    <rect id="Rectangle" fill="#343A3F" x="0" y="0" width="9" height="9" rx="4.5"></rect>
                    <rect id="Rectangle" fill="#343A3F" x="5" y="0" width="5" height="9"></rect>
                    <rect id="Rectangle" fill="#B7B7B7" transform="translate(11.500000, 4.500000) rotate(90.000000) translate(-11.500000, -4.500000) " x="8" y="3" width="7" height="3"></rect>
                </g>
                <g id="Group-3" transform="translate(80.000000, 40.000000)">
                    <rect id="Rectangle" fill="#343A3F" x="0" y="0" width="9" height="9" rx="4.5"></rect>
                    <rect id="Rectangle" fill="#343A3F" x="5" y="0" width="5" height="9"></rect>
                    <rect id="Rectangle" fill="#B7B7B7" transform="translate(11.500000, 4.500000) rotate(90.000000) translate(-11.500000, -4.500000) " x="8" y="3" width="7" height="3"></rect>
                </g>
            </g>
            <text id="3-high-bandwidth-HDM" font-family="IBMPlexSans, IBM Plex Sans" font-size="12" font-weight="normal" letter-spacing="-0.07294927" fill="#697077">
                <tspan x="506.03129" y="1438">3 high-bandwidth HDMI cables</tspan>
            </text>
        </g>
    </g>
</svg>