<?xml version="1.0" encoding="UTF-8"?>
<svg width="530px" height="270px" viewBox="0 0 530 270" version="1.1" xmlns="http://www.w3.org/2000/svg" xmlns:xlink="http://www.w3.org/1999/xlink">
    <!-- Generator: Sketch 52.6 (67491) - http://www.bohemiancoding.com/sketch -->
    <title>Rectangle</title>
    <desc>Created with Sketch.</desc>
    <g id="Page-1" stroke="none" stroke-width="1" fill="none" fill-rule="evenodd">
        <g id="Setup-Guide" transform="translate(-319.000000, -5059.000000)">
            <rect id="Rectangle" stroke="#DDE1E6" stroke-width="2" fill="#DDE1E6" x="527" y="5071" width="89" height="181" rx="1"></rect>
            <text id="RecordRig-(as-viewed" font-family="IBMPlexSans, IBM Plex Sans" font-size="12" font-weight="normal" letter-spacing="-0.07294927" fill="#697077">
                <tspan x="544.288272" y="5299">RecordRig</tspan>
                <tspan x="513.225967" y="5314">(as viewed from back)</tspan>
            </text>
            <polygon id="Path-2" fill="#A2A9B0" points="596 5252 597.097127 5259 607.058189 5259 608 5252"></polygon>
            <polygon id="Path-2" fill="#A2A9B0" points="536 5252 537.097127 5259 547.058189 5259 548 5252"></polygon>
            <rect id="Rectangle" stroke="#C1C7CD" x="531.5" y="5173.5" width="62" height="7" rx="1"></rect>
            <rect id="Rectangle" stroke="#697077" x="531.5" y="5156.5" width="62" height="7" rx="1"></rect>
            <rect id="Rectangle" stroke="#C1C7CD" x="531.5" y="5166.5" width="62" height="7" rx="1"></rect>
            <rect id="Rectangle" stroke="#C1C7CD" x="531.5" y="5176.5" width="62" height="7" rx="1"></rect>
            <rect id="Rectangle" stroke="#697077" x="531.5" y="5185.5" width="62" height="7" rx="1"></rect>
            <rect id="Rectangle" stroke="#C1C7CD" x="531.5" y="5195.5" width="62" height="7" rx="1"></rect>
            <rect id="Rectangle" stroke="#C1C7CD" x="531.5" y="5205.5" width="62" height="7" rx="1"></rect>
            <polygon id="Path-3" stroke="#697077" fill="#697077" points="567.066928 5188 573.394239 5188 574.331571 5188.93733 574.331571 5191.15546 566 5191.15546 566 5188.76475"></polygon>
            <polygon id="Path-3" stroke="#697077" fill="#697077" points="567.066928 5159 573.394239 5159 574.331571 5159.93733 574.331571 5162.15546 566 5162.15546 566 5159.76475"></polygon>
            <polygon id="Path-3" stroke="#C1C7CD" points="580 5159 587.394239 5159 588.331571 5159.93733 588.331571 5162.15546 580 5162.15546 580 5159.76475"></polygon>
            <polygon id="Path-3" stroke="#697077" fill="#697077" points="581.066928 5188 587.394239 5188 588.331571 5188.93733 588.331571 5191.15546 580 5191.15546 580 5188.76475"></polygon>
            <rect id="Rectangle" stroke="#C1C7CD" x="540.5" y="5158.5" width="10" height="4"></rect>
            <rect id="Rectangle" stroke="#C1C7CD" x="537.5" y="5159.5" width="2" height="2" rx="1"></rect>
            <rect id="Rectangle" stroke="#C1C7CD" x="552.5" y="5159.5" width="2" height="2" rx="1"></rect>
            <text id="Gaming-PC-or-gaming" font-family="IBMPlexSans, IBM Plex Sans" font-size="12" font-weight="normal" letter-spacing="-0.07294927" fill="#697077">
                <tspan x="334.493696" y="5293">Gaming PC or </tspan>
                <tspan x="328.968645" y="5308">gaming console </tspan>
                <tspan x="320.684543" y="5323">(Xbox/PlayStation)</tspan>
            </text>
            <rect id="Rectangle" fill="#A2A9B0" x="331" y="5103" width="75" height="154" rx="2"></rect>
            <g id="controller" transform="translate(355.000000, 5218.000000)" fill="#878D96" fill-rule="nonzero">
                <g id="Group" transform="translate(30.500000, 19.500000) scale(-1, 1) rotate(-180.000000) translate(-30.500000, -19.500000) ">
                    <path d="M13.6562182,38.9047607 C11.8919722,38.5312608 10.022825,37.0419894 8.13937309,34.5078641 C4.43922458,29.5247146 1.22066755,20.9909529 0.257484562,13.6344249 C0.0476823263,12.0269573 0,11.270502 0,9.56847747 C0,7.8380859 0.0476823263,7.17145965 0.257484562,5.99895389 C0.901195967,2.45779738 2.58438208,0.44846292 5.23075119,0.0607795645 C6.48956461,-0.123606422 7.73407332,0.117513714 8.98335027,0.784139972 C10.1706402,1.41767131 11.1624326,2.20249371 12.5595247,3.61611961 C13.7849605,4.85481521 14.5907918,5.80984006 16.6602048,8.48107293 C17.3229891,9.34154087 18.0668334,10.2823822 18.3147815,10.5707808 L18.7629954,11.1050274 L30.4880794,11.1050274 L42.2131634,11.1050274 L42.6613773,10.5707808 C42.9093254,10.2823822 43.7103885,9.26589534 44.4494646,8.31559833 C46.6237786,5.50725793 47.4439146,4.55696092 48.8267021,3.20952487 C49.9996873,2.07484188 50.8102869,1.44131054 51.8259204,0.873969042 C53.1514891,0.136425097 54.4341437,-0.133062113 55.7454076,0.0607795645 C56.3605097,0.150608635 56.8659423,0.306627546 57.3856797,0.566659065 C60.6233096,2.17412664 61.7486125,7.41257978 60.5041038,15.0527786 C59.502775,21.1989781 56.9756117,28.0685381 53.9668569,32.8483902 C52.9941374,34.3896679 52.083405,35.5479901 51.0153209,36.6164833 C49.7517392,37.8740903 48.7313375,38.5312608 47.5297428,38.8669379 C47.1530525,38.9756783 47.1292113,38.9756783 43.0762136,38.9898619 C39.1185805,39.0040454 38.9946064,38.9993176 38.6894395,38.9094885 C38.2841398,38.7865645 37.6928789,38.4130647 36.7344642,37.6755207 C35.8714141,37.0136223 35.399359,36.7110402 35.0322051,36.5786605 C34.7985617,36.4982871 34.5363089,36.4935593 30.4880794,36.4935593 C26.4398499,36.4935593 26.1775971,36.4982871 25.9439537,36.5786605 C25.5767998,36.7110402 25.1047448,37.0136223 24.2416947,37.6755207 C23.2880482,38.4083368 22.6967873,38.7818367 22.2962558,38.9047607 C22.0006253,38.9945897 21.8528101,38.9993176 18.0239193,38.9945897 C14.3809896,38.9945897 14.0281404,38.985134 13.6562182,38.9047607 Z M45.6653639,33.0233205 C46.1660283,32.9051243 46.6047057,32.5221688 46.7763621,32.0399286 C46.8717267,31.779897 46.8717267,31.2787454 46.7763621,31.0187139 C46.3805988,29.9218536 44.9596654,29.6239993 44.1729071,30.4702837 C43.8629719,30.801233 43.7676073,31.0518088 43.7676073,31.5293212 C43.7676073,31.8366312 43.7914484,31.9831944 43.8677402,32.148669 C44.0680059,32.5741751 44.4637692,32.9003965 44.931056,33.0233205 C45.21715,33.098966 45.3315876,33.098966 45.6653639,33.0233205 Z M15.9926522,30.7019482 L15.9926522,29.0235629 L17.6853748,29.0235629 L19.3780974,29.0235629 L19.3685609,27.9077913 L19.3542562,26.7967476 L17.6758383,26.8014754 L15.9926522,26.8014754 L15.9831158,25.1136345 L15.9688111,23.4210657 L14.8387399,23.4068821 L13.7039006,23.3974264 L13.7039006,25.0994509 L13.7039006,26.8014754 L12.011178,26.8014754 L10.3184554,26.8014754 L10.3184554,27.9125192 L10.3184554,29.0235629 L12.011178,29.0235629 L13.7039006,29.0235629 L13.7039006,30.7019482 L13.7039006,32.3803334 L14.8482764,32.3803334 L15.9926522,32.3803334 L15.9926522,30.7019482 Z M41.8507778,29.2410438 C42.3657469,29.1228477 42.8378019,28.683158 42.9808489,28.1914621 C43.0666771,27.8983356 43.023763,27.3404498 42.8950207,27.0756905 C42.7472055,26.7778362 42.4372704,26.4799819 42.122567,26.3334187 C41.7411084,26.1584884 41.2070664,26.1632162 40.830376,26.3428744 C40.5156726,26.4941654 40.2009693,26.8109311 40.0579223,27.1229689 C39.9101071,27.4350067 39.9101071,28.0590824 40.0531541,28.3663924 C40.2581881,28.8013542 40.6825608,29.1464869 41.1546158,29.2552274 C41.4168686,29.3166894 41.5408426,29.3119615 41.8507778,29.2410438 Z M49.8804815,29.1181198 C50.4192918,28.8533605 50.7292269,28.3569367 50.7292269,27.7470446 C50.7292269,27.4397346 50.7053858,27.3451777 50.5718752,27.0756905 C50.2953178,26.5130768 49.8041898,26.2104947 49.1795513,26.2104947 C48.5501446,26.2152225 48.0637849,26.5178047 47.7872274,27.0756905 C47.6537169,27.3451777 47.6298757,27.4350067 47.6298757,27.7470446 C47.6346439,28.0307153 47.6584851,28.1583672 47.758618,28.3663924 C48.1400766,29.1890375 49.0603455,29.5152589 49.8804815,29.1181198 Z M46.0420542,25.2980204 C46.3472211,25.1514572 46.6428516,24.8441472 46.7906668,24.5321094 C46.9527867,24.1869767 46.9623231,23.6290909 46.8097397,23.2934138 C46.6666927,22.981376 46.3567576,22.6646103 46.037286,22.5133193 C45.8084108,22.399851 45.7130462,22.3809396 45.3649652,22.3809396 C45.0168842,22.3809396 44.9215196,22.399851 44.6878762,22.5133193 C43.8915813,22.9010026 43.5721097,23.8985781 44.0107871,24.6550334 C44.1586024,24.9150649 44.5543657,25.2649255 44.807082,25.3547546 C45.1122489,25.4682229 45.7559603,25.435128 46.0420542,25.2980204 Z M24.5516298,19.2132829 C25.7007739,18.9721628 26.6782615,18.0076822 26.9405143,16.8446322 C27.1026343,16.1165439 26.9595873,15.2702595 26.5685922,14.6130889 C26.3206441,14.1923107 25.805675,13.7100704 25.3622293,13.4831338 C24.8520285,13.2231023 24.4610334,13.1238175 23.9079184,13.1238175 C22.6872508,13.1190897 21.6191667,13.7809881 21.0946611,14.8636648 C20.8562495,15.3600886 20.7894943,15.6626707 20.7942625,16.2111008 C20.7990307,17.4261572 21.4522786,18.4473719 22.5585086,18.9816185 C23.1640741,19.2747449 23.8697725,19.3551183 24.5516298,19.2132829 Z M37.7500977,19.2132829 C38.4033456,19.0761754 39.1042758,18.6412136 39.519112,18.1211505 C39.9768623,17.5443533 40.1818963,16.9297334 40.1818963,16.1638224 C40.1771281,15.2891709 39.867193,14.5894497 39.2091769,13.9653741 C38.6036113,13.3933047 37.9074494,13.1190897 37.0682404,13.1238175 C36.2242633,13.1285454 35.480419,13.4311275 34.8986946,14.0126525 C34.312202,14.5989054 34.026108,15.2277089 33.9831939,16.021987 C33.9498163,16.603512 34.045181,17.0621131 34.312202,17.5963596 C34.7031971,18.3717263 35.5519425,19.0288969 36.4006879,19.2085551 C36.8059876,19.2983841 37.3495662,19.2983841 37.7500977,19.2132829 Z" id="Shape"></path>
                </g>
            </g>
            <g id="Group-2" transform="translate(478.500000, 5203.500000) rotate(-360.000000) translate(-478.500000, -5203.500000) translate(449.000000, 5185.000000)">
                <rect id="Rectangle" stroke="#343A3F" stroke-width="3" x="1.5" y="3.91304348" width="37.9722222" height="31.5869565" rx="15.7934783"></rect>
                <rect id="Rectangle" fill="#343A3F" x="18.0277778" y="2.41304348" width="31.1388889" height="2.41304348"></rect>
                <g id="Group-3" transform="translate(48.347222, 0.000000)">
                    <rect id="Rectangle" fill="#343A3F" x="0" y="0" width="7.375" height="7.23913043" rx="3.61956522"></rect>
                    <rect id="Rectangle" fill="#343A3F" x="4.09722222" y="0" width="4.09722222" height="7.23913043"></rect>
                    <polygon id="Rectangle" fill="#B7B7B7" transform="translate(9.423611, 3.619565) rotate(90.000000) translate(-9.423611, -3.619565) " points="6.60839372 2.39039855 12.2388285 2.39039855 12.2388285 4.84873188 6.60839372 4.84873188"></polygon>
                </g>
            </g>
            <rect id="Rectangle" fill="#343A3F" x="436" y="5220" width="35" height="2"></rect>
            <g id="Group-3" transform="translate(432.500000, 5221.500000) rotate(-180.000000) translate(-432.500000, -5221.500000) translate(427.000000, 5218.000000)">
                <rect id="Rectangle" fill="#343A3F" x="0" y="0" width="7.61538462" height="7" rx="3.5"></rect>
                <rect id="Rectangle" fill="#343A3F" x="4.23076923" y="0" width="4.23076923" height="7"></rect>
                <polygon id="Rectangle" fill="#B7B7B7" transform="translate(9.730769, 3.500000) rotate(90.000000) translate(-9.730769, -3.500000) " points="7.00854701 2.23076923 12.4529915 2.23076923 12.4529915 4.76923077 7.00854701 4.76923077"></polygon>
            </g>
            <g id="Group-2" transform="translate(664.000000, 5207.500000) rotate(-180.000000) translate(-664.000000, -5207.500000) translate(642.000000, 5193.000000)">
                <rect id="Rectangle" stroke="#343A3F" stroke-width="3" x="5.625" y="1.5" width="26.7574627" height="24.1086957" rx="12.0543478"></rect>
                <rect id="Rectangle" fill="#343A3F" x="17.8134328" y="25.2173913" width="19.0447761" height="1.89130435"></rect>
                <rect id="Rectangle" fill="#343A3F" x="0" y="0" width="19.0447761" height="1.89130435"></rect>
                <g id="Group-3" transform="translate(36.263060, 23.326087)">
                    <rect id="Rectangle" fill="#343A3F" x="0" y="0" width="5.35634328" height="5.67391304" rx="2.67817164"></rect>
                    <rect id="Rectangle" fill="#343A3F" x="2.97574627" y="0" width="2.97574627" height="5.67391304"></rect>
                    <polygon id="Rectangle" fill="#B7B7B7" transform="translate(6.844216, 2.836957) rotate(90.000000) translate(-6.844216, -2.836957) " points="4.63769468 1.94423264 9.05073816 1.94423264 9.05073816 3.7296804 4.63769468 3.7296804"></polygon>
                </g>
            </g>
            <g id="Group-3" transform="translate(688.000000, 5220.000000) rotate(-360.000000) translate(-688.000000, -5220.000000) translate(684.000000, 5217.000000)">
                <rect id="Rectangle" fill="#343A3F" x="0" y="0" width="5.53846154" height="6" rx="2.76923077"></rect>
                <rect id="Rectangle" fill="#343A3F" x="3.07692308" y="0" width="3.07692308" height="6"></rect>
                <polygon id="Rectangle" fill="#B7B7B7" transform="translate(7.076923, 3.000000) rotate(90.000000) translate(-7.076923, -3.000000) " points="4.74358974 2.07692308 9.41025641 2.07692308 9.41025641 3.92307692 4.74358974 3.92307692"></polygon>
            </g>
            <g id="Group-2" transform="translate(662.500000, 5147.000000) rotate(-180.000000) translate(-662.500000, -5147.000000) translate(640.000000, 5132.000000)">
                <rect id="Rectangle" stroke="#343A3F" stroke-width="3" x="6.625" y="3.5" width="26.7574627" height="24.1086957" rx="12.0543478"></rect>
                <rect id="Rectangle" fill="#343A3F" x="18.8134328" y="2.2173913" width="19.0447761" height="1.89130435"></rect>
                <rect id="Rectangle" fill="#343A3F" x="0" y="27" width="19.0447761" height="1.89130435"></rect>
                <g id="Group-3" transform="translate(37.263060, 0.326087)">
                    <rect id="Rectangle" fill="#343A3F" x="0" y="0" width="5.35634328" height="5.67391304" rx="2.67817164"></rect>
                    <rect id="Rectangle" fill="#343A3F" x="2.97574627" y="0" width="2.97574627" height="5.67391304"></rect>
                    <polygon id="Rectangle" fill="#B7B7B7" transform="translate(6.844216, 2.836957) rotate(90.000000) translate(-6.844216, -2.836957) " points="4.63769468 1.94423264 9.05073816 1.94423264 9.05073816 3.7296804 4.63769468 3.7296804"></polygon>
                </g>
            </g>
            <g id="Group-3" transform="translate(687.000000, 5133.000000) rotate(-360.000000) translate(-687.000000, -5133.000000) translate(683.000000, 5130.000000)">
                <rect id="Rectangle" fill="#343A3F" x="0" y="0" width="5.53846154" height="6" rx="2.76923077"></rect>
                <rect id="Rectangle" fill="#343A3F" x="3.07692308" y="0" width="3.07692308" height="6"></rect>
                <polygon id="Rectangle" fill="#B7B7B7" transform="translate(7.076923, 3.000000) rotate(90.000000) translate(-7.076923, -3.000000) " points="4.74358974 2.07692308 9.41025641 2.07692308 9.41025641 3.92307692 4.74358974 3.92307692"></polygon>
            </g>
            <text id="Display-1-(gaming-si" font-family="IBMPlexSans, IBM Plex Sans" font-size="12" font-weight="normal" letter-spacing="-0.07294927" fill="#707070">
                <tspan x="757.584272" y="5311">Display 1</tspan>
                <tspan x="741.54912" y="5326">(gaming signal)</tspan>
            </text>
            <text id="Display-2-(RecordRig" font-family="IBMPlexSans, IBM Plex Sans" font-size="12" font-weight="normal" letter-spacing="-0.07294927" fill="#707070">
                <tspan x="758.584272" y="5161">Display 2</tspan>
                <tspan x="734.846543" y="5176">(RecordRig signal)</tspan>
            </text>
            <g id="display-1" transform="translate(719.000000, 5204.000000)">
                <rect id="Rectangle" stroke="#A2A9B0" stroke-width="3" fill="#C1C7CD" x="2" y="1.5" width="125" height="69" rx="2"></rect>
                <rect id="Rectangle" fill="#A2A9B0" x="60.5" y="71" width="10" height="7"></rect>
                <rect id="Rectangle" fill="#A2A9B0" x="35.5" y="78" width="59" height="5" rx="2"></rect>
            </g>
            <g id="display-1" transform="translate(719.000000, 5059.000000)">
                <rect id="Rectangle" stroke="#A2A9B0" stroke-width="3" fill="#C1C7CD" x="2" y="1.5" width="125" height="69" rx="2"></rect>
                <rect id="Rectangle" fill="#A2A9B0" x="60.5" y="71" width="10" height="7"></rect>
                <rect id="Rectangle" fill="#A2A9B0" x="35.5" y="78" width="59" height="5" rx="2"></rect>
            </g>
        </g>
    </g>
</svg>