<?xml version="1.0" encoding="UTF-8"?>
<svg width="387px" height="304px" viewBox="0 0 387 304" version="1.1" xmlns="http://www.w3.org/2000/svg" xmlns:xlink="http://www.w3.org/1999/xlink">
    <!-- Generator: Sketch 52.6 (67491) - http://www.bohemiancoding.com/sketch -->
    <title>Rectangle</title>
    <desc>Created with Sketch.</desc>
    <g id="Page-1" stroke="none" stroke-width="1" fill="none" fill-rule="evenodd">
        <g id="Setup-Guide" transform="translate(-317.000000, -1997.000000)">
            <rect id="Rectangle" stroke="#DDE1E6" stroke-width="2" fill="#DDE1E6" x="593" y="2003" width="109" height="222" rx="1"></rect>
            <text id="RecordRig-(as-viewed" font-family="IBMPlexSans, IBM Plex Sans" font-size="12" font-weight="normal" letter-spacing="-0.07294927" fill="#697077">
                <tspan x="618.288272" y="2281">RecordRig</tspan>
                <tspan x="587.225967" y="2296">(as viewed from back)</tspan>
            </text>
            <polygon id="Path-2" fill="#A2A9B0" points="678 2226 679.371409 2234 691.822737 2234 693 2226"></polygon>
            <polygon id="Path-2" fill="#A2A9B0" points="604 2226 605.371409 2234 617.822737 2234 619 2226"></polygon>
            <rect id="Rectangle" stroke="#C1C7CD" x="598.5" y="2096.5" width="76" height="9" rx="1"></rect>
            <rect id="Rectangle" stroke="#C1C7CD" x="598.5" y="2108.5" width="76" height="9" rx="1"></rect>
            <rect id="Rectangle" stroke="#C1C7CD" x="598.5" y="2120.5" width="76" height="9" rx="1"></rect>
            <rect id="Rectangle" stroke="#C1C7CD" x="598.5" y="2132.5" width="76" height="9" rx="1"></rect>
            <rect id="Rectangle" stroke="#697077" x="598.5" y="2144.5" width="76" height="9" rx="1"></rect>
            <rect id="Rectangle" stroke="#C1C7CD" x="598.5" y="2156.5" width="76" height="9" rx="1"></rect>
            <rect id="Rectangle" stroke="#C1C7CD" x="598.5" y="2168.5" width="76" height="9" rx="1"></rect>
            <polygon id="Path-3" stroke="#697077" fill="#697077" points="642.312376 2147 650.095291 2147 651.248257 2148.15297 651.248257 2150.88137 641 2150.88137 641 2147.94069"></polygon>
            <polygon id="Path-3" stroke="#C1C7CD" points="642.312376 2111 650.095291 2111 651.248257 2112.15297 651.248257 2114.88137 641 2114.88137 641 2111.94069"></polygon>
            <polygon id="Path-3" stroke="#C1C7CD" points="658 2111 667.095291 2111 668.248257 2112.15297 668.248257 2114.88137 658 2114.88137 658 2111.94069"></polygon>
            <polygon id="Path-3" stroke="#C1C7CD" points="659.312376 2147 667.095291 2147 668.248257 2148.15297 668.248257 2150.88137 658 2150.88137 658 2147.94069"></polygon>
            <rect id="Rectangle" stroke="#C1C7CD" x="609.5" y="2110.5" width="13" height="5"></rect>
            <rect id="Rectangle" stroke="#C1C7CD" x="605.5" y="2111.5" width="3" height="3" rx="1.5"></rect>
            <rect id="Rectangle" stroke="#C1C7CD" x="623.5" y="2111.5" width="3" height="3" rx="1.5"></rect>
            <text id="Gaming-PC-or-gaming" font-family="IBMPlexSans, IBM Plex Sans" font-size="12" font-weight="normal" letter-spacing="-0.07294927" fill="#697077">
                <tspan x="319.082815" y="2281">Gaming PC or gaming console </tspan>
                <tspan x="348.184543" y="2296">(Xbox/PlayStation)</tspan>
            </text>
            <rect id="Rectangle" fill="#A2A9B0" x="352" y="2043" width="92" height="189" rx="2"></rect>
            <g id="controller" transform="translate(381.000000, 2184.000000)" fill="#878D96" fill-rule="nonzero">
                <g id="Group" transform="translate(37.500000, 24.000000) scale(-1, 1) rotate(-180.000000) translate(-37.500000, -24.000000) ">
                    <path d="M16.7904323,47.8827823 C14.6212773,47.4230903 12.3231455,45.5901408 10.0074259,42.4712173 C5.458063,36.3381103 1.50082076,25.835019 0.316579379,16.7808306 C0.058625811,14.802409 0,13.871387 0,11.7765877 C0,9.64687496 0.058625811,8.82641187 0.316579379,7.38332786 C1.10802783,3.0249814 3.17751896,0.551954363 6.43125147,0.0748056179 C7.97897288,-0.152130981 9.50910654,0.144632264 11.0451028,0.96509535 C12.5048855,1.74482623 13.7243024,2.71076149 15.4420386,4.45060875 C16.948722,5.97515718 17.9394982,7.15057238 20.4838584,10.4382436 C21.2987571,11.4972811 22.2133198,12.6552396 22.518174,13.0101917 L23.0692566,13.667726 L37.4853435,13.667726 L51.9014305,13.667726 L52.4525131,13.0101917 C52.7573673,12.6552396 53.7422809,11.4041789 54.650981,10.2345826 C57.324318,6.7781636 58.3326819,5.60856729 60.0328305,3.95018445 C61.4750254,2.55365154 62.4716642,1.77392066 63.720394,1.07565421 C65.3501915,0.167907812 66.9272258,-0.163768755 68.5394356,0.0748056179 C69.2957086,0.185364473 69.9171422,0.377387749 70.5561635,0.697426542 C74.5368561,2.67584817 75.9204252,9.12317512 74.3902916,18.5264967 C73.1591495,26.09105 70.0519816,34.545893 66.3526929,40.4287879 C65.1567263,42.3257451 64.0369733,43.7513725 62.7237552,45.066441 C61.1701712,46.6142649 59.9155788,47.4230903 58.4382084,47.8362312 C57.9750645,47.9700656 57.9457516,47.9700656 52.9625576,47.9875223 C48.0966153,48.004979 47.9441882,47.9991601 47.568983,47.8886012 C47.0706636,47.7373102 46.3437036,47.2776181 45.1653248,46.3698717 C44.1041976,45.5552275 43.5238021,45.1828187 43.0723833,45.0198899 C42.7851169,44.9209688 42.4626749,44.9151499 37.4853435,44.9151499 C32.5080122,44.9151499 32.1855702,44.9209688 31.8983038,45.0198899 C31.446885,45.1828187 30.8664895,45.5552275 29.8053623,46.3698717 C28.6328461,47.2717992 27.905886,47.7314913 27.4134292,47.8827823 C27.0499492,47.9933412 26.8682092,47.9991601 22.1605566,47.9933412 C17.6815446,47.9933412 17.2477136,47.9817034 16.7904323,47.8827823 Z M56.1459392,40.6440867 C56.7615102,40.4986146 57.3008677,40.0272847 57.5119206,39.4337582 C57.6291722,39.1137194 57.6291722,38.4969174 57.5119206,38.1768786 C57.0253264,36.8268968 55.2782772,36.4603069 54.3109513,37.5018877 C53.9298835,37.9092098 53.8126319,38.2176108 53.8126319,38.8053184 C53.8126319,39.1835461 53.8419448,39.3639316 53.9357461,39.5675926 C54.1819745,40.0912925 54.6685687,40.4927957 55.2431017,40.6440867 C55.5948566,40.7371889 55.7355585,40.7371889 56.1459392,40.6440867 Z M19.663097,37.7870132 L19.663097,35.7213082 L21.7443133,35.7213082 L23.8255296,35.7213082 L23.8138044,34.3480509 L23.7962167,32.9806124 L21.7325881,32.9864313 L19.663097,32.9864313 L19.6513718,30.9090886 L19.6337841,28.825927 L18.2443524,28.8084703 L16.8490581,28.7968325 L16.8490581,30.8916319 L16.8490581,32.9864313 L14.7678418,32.9864313 L12.6866255,32.9864313 L12.6866255,34.3538697 L12.6866255,35.7213082 L14.7678418,35.7213082 L16.8490581,35.7213082 L16.8490581,37.7870132 L16.8490581,39.8527181 L18.2560775,39.8527181 L19.663097,39.8527181 L19.663097,37.7870132 Z M51.4558743,35.988977 C52.0890331,35.8435049 52.6694286,35.3023484 52.845306,34.6971841 C52.9508325,34.3364131 52.8980693,33.6497844 52.7397796,33.3239267 C52.5580396,32.9573368 52.1769718,32.5907469 51.7900414,32.4103614 C51.3210349,32.1950626 50.6644259,32.2008815 50.201282,32.4219992 C49.8143516,32.6082036 49.4274212,32.998069 49.2515438,33.3821156 C49.0698038,33.7661621 49.0698038,34.5342552 49.2456812,34.9124829 C49.4977722,35.4478205 50.0195419,35.8725993 50.5999375,36.0064337 C50.9223794,36.0820792 51.0748065,36.0762603 51.4558743,35.988977 Z M61.3284609,35.837686 C61.9909325,35.5118283 62.3720003,34.9008451 62.3720003,34.1502087 C62.3720003,33.771981 62.3426874,33.6556033 62.1785351,33.3239267 C61.8385054,32.6314792 61.2346596,32.2590704 60.4666615,32.2590704 C59.6928008,32.2648893 59.0948175,32.637298 58.7547878,33.3239267 C58.5906355,33.6556033 58.5613226,33.7661621 58.5613226,34.1502087 C58.5671852,34.4993419 58.5964981,34.6564519 58.7196123,34.9124829 C59.1886188,35.9249693 60.3200969,36.3264725 61.3284609,35.837686 Z M56.6090831,31.1360252 C56.9842883,30.9556397 57.3477683,30.577412 57.5295083,30.1933654 C57.7288361,29.7685867 57.7405612,29.081958 57.5529586,28.668817 C57.3770812,28.2847705 56.9960134,27.894905 56.6032205,27.7087006 C56.3218166,27.5690473 56.204565,27.5457718 55.7765966,27.5457718 C55.3486282,27.5457718 55.2313765,27.5690473 54.9441101,27.7087006 C53.965059,28.1858494 53.5722661,29.4136346 54.1116235,30.3446565 C54.2933636,30.6646953 54.7799578,31.0952929 55.0906746,31.2058518 C55.4658798,31.3455051 56.2573282,31.3047729 56.6090831,31.1360252 Z M30.1864301,23.6471174 C31.5993121,23.3503542 32.8011412,22.1633012 33.1235832,20.731855 C33.322911,19.8357463 33.1470335,18.7941655 32.6663019,17.9853402 C32.3614477,17.4674593 31.7282889,16.8739328 31.1830689,16.5946262 C30.5557727,16.2745874 30.075041,16.1523908 29.3949816,16.1523908 C27.8941609,16.1465719 26.5809427,16.9612161 25.9360588,18.2937412 C25.6429297,18.9047244 25.5608536,19.2771332 25.5667162,19.9521241 C25.5725788,21.4475781 26.3757524,22.7044577 27.7358712,23.3619919 C28.480419,23.7227629 29.348081,23.821684 30.1864301,23.6471174 Z M46.4140546,23.6471174 C47.2172282,23.4783697 48.0790276,22.9430321 48.5890721,22.3029545 C49.1518799,21.5930503 49.4039709,20.8365949 49.4039709,19.8939352 C49.3981083,18.8174411 49.0170406,17.9562458 48.2080044,17.1881527 C47.4634566,16.4840673 46.6075197,16.1465719 45.5757055,16.1523908 C44.5380286,16.1582097 43.623466,16.5306184 42.9082311,17.2463416 C42.1871336,17.9678836 41.8353787,18.7417956 41.7826155,19.7193686 C41.7415774,20.4350917 41.858829,20.9995238 42.1871336,21.657058 C42.6678652,22.6113555 43.7114047,23.4201808 44.7549441,23.6412985 C45.2532635,23.7518574 45.9215977,23.7518574 46.4140546,23.6471174 Z" id="Shape"></path>
                </g>
            </g>
            <g id="Group-2" transform="translate(533.000000, 2167.000000) rotate(-360.000000) translate(-533.000000, -2167.000000) translate(497.000000, 2144.000000)">
                <rect id="Rectangle" stroke="#343A3F" stroke-width="3" x="1.5" y="4.5" width="47" height="40" rx="20"></rect>
                <rect id="Rectangle" fill="#343A3F" x="22" y="3" width="38" height="3"></rect>
                <g id="Group-3" transform="translate(59.000000, 0.000000)">
                    <rect id="Rectangle" fill="#343A3F" x="0" y="0" width="9" height="9" rx="4.5"></rect>
                    <rect id="Rectangle" fill="#343A3F" x="5" y="0" width="5" height="9"></rect>
                    <rect id="Rectangle" fill="#B7B7B7" transform="translate(11.500000, 4.500000) rotate(90.000000) translate(-11.500000, -4.500000) " x="8" y="3" width="7" height="3"></rect>
                </g>
            </g>
            <rect id="Rectangle" fill="#343A3F" transform="translate(501.500000, 2188.500000) rotate(-180.000000) translate(-501.500000, -2188.500000) " x="480" y="2187" width="43" height="3"></rect>
            <g id="Group-3" transform="translate(475.500000, 2188.500000) rotate(-180.000000) translate(-475.500000, -2188.500000) translate(469.000000, 2184.000000)">
                <rect id="Rectangle" fill="#343A3F" x="0" y="0" width="9" height="9" rx="4.5"></rect>
                <rect id="Rectangle" fill="#343A3F" x="5" y="0" width="5" height="9"></rect>
                <rect id="Rectangle" fill="#B7B7B7" transform="translate(11.500000, 4.500000) rotate(90.000000) translate(-11.500000, -4.500000) " x="8" y="3" width="7" height="3"></rect>
            </g>
        </g>
    </g>
</svg>