<?xml version="1.0" encoding="UTF-8"?>
<svg width="422px" height="285px" viewBox="0 0 422 285" version="1.1" xmlns="http://www.w3.org/2000/svg" xmlns:xlink="http://www.w3.org/1999/xlink">
    <!-- Generator: Sketch 52.6 (67491) - http://www.bohemiancoding.com/sketch -->
    <title>Rectangle</title>
    <desc>Created with Sketch.</desc>
    <g id="Page-1" stroke="none" stroke-width="1" fill="none" fill-rule="evenodd">
        <g id="Setup-Guide" transform="translate(-323.000000, -3208.000000)">
            <rect id="Rectangle" stroke="#DDE1E6" stroke-width="2" fill="#DDE1E6" x="328" y="3209" width="109" height="222" rx="1"></rect>
            <text id="RecordRig-(as-viewed" font-family="IBMPlexSans, IBM Plex Sans" font-size="12" font-weight="normal" letter-spacing="-0.07294927" fill="#697077">
                <tspan x="355.288272" y="3475">RecordRig</tspan>
                <tspan x="324.225967" y="3490">(as viewed from back)</tspan>
            </text>
            <polygon id="Path-2" fill="#A2A9B0" points="413 3432 414.371409 3440 426.822737 3440 428 3432"></polygon>
            <polygon id="Path-2" fill="#A2A9B0" points="339 3432 340.371409 3440 352.822737 3440 354 3432"></polygon>
            <rect id="Rectangle" stroke="#C1C7CD" x="333.5" y="3302.5" width="76" height="9" rx="1"></rect>
            <rect id="Rectangle" stroke="#697077" x="333.5" y="3314.5" width="76" height="9" rx="1"></rect>
            <rect id="Rectangle" stroke="#C1C7CD" x="333.5" y="3326.5" width="76" height="9" rx="1"></rect>
            <rect id="Rectangle" stroke="#C1C7CD" x="333.5" y="3338.5" width="76" height="9" rx="1"></rect>
            <rect id="Rectangle" stroke="#C1C7CD" x="333.5" y="3350.5" width="76" height="9" rx="1"></rect>
            <rect id="Rectangle" stroke="#C1C7CD" x="333.5" y="3362.5" width="76" height="9" rx="1"></rect>
            <rect id="Rectangle" stroke="#C1C7CD" x="333.5" y="3374.5" width="76" height="9" rx="1"></rect>
            <polygon id="Path-3" stroke="#C1C7CD" points="377.312376 3353 385.095291 3353 386.248257 3354.15297 386.248257 3356.88137 376 3356.88137 376 3353.94069"></polygon>
            <polygon id="Path-3" stroke="#697077" fill="#697077" points="377.312376 3317 385.095291 3317 386.248257 3318.15297 386.248257 3320.88137 376 3320.88137 376 3317.94069"></polygon>
            <polygon id="Path-3" stroke="#C1C7CD" points="393 3317 402.095291 3317 403.248257 3318.15297 403.248257 3320.88137 393 3320.88137 393 3317.94069"></polygon>
            <polygon id="Path-3" stroke="#C1C7CD" points="394.312376 3353 402.095291 3353 403.248257 3354.15297 403.248257 3356.88137 393 3356.88137 393 3353.94069"></polygon>
            <rect id="Rectangle" stroke="#C1C7CD" x="344.5" y="3316.5" width="13" height="5"></rect>
            <rect id="Rectangle" stroke="#C1C7CD" x="340.5" y="3317.5" width="3" height="3" rx="1.5"></rect>
            <rect id="Rectangle" stroke="#C1C7CD" x="358.5" y="3317.5" width="3" height="3" rx="1.5"></rect>
            <g id="Group-2" transform="translate(493.500000, 3338.000000) rotate(-180.000000) translate(-493.500000, -3338.000000) translate(460.000000, 3315.000000)">
                <rect id="Rectangle" stroke="#343A3F" stroke-width="3" x="1.5" y="1.5" width="47" height="40" rx="20"></rect>
                <rect id="Rectangle" fill="#343A3F" x="23" y="40" width="32" height="3"></rect>
                <g id="Group-3" transform="translate(54.000000, 37.000000)">
                    <rect id="Rectangle" fill="#343A3F" x="0" y="0" width="9" height="9" rx="4.5"></rect>
                    <rect id="Rectangle" fill="#343A3F" x="5" y="0" width="5" height="9"></rect>
                    <rect id="Rectangle" fill="#B7B7B7" transform="translate(11.500000, 4.500000) rotate(90.000000) translate(-11.500000, -4.500000) " x="8" y="3" width="7" height="3"></rect>
                </g>
            </g>
            <rect id="Rectangle" fill="#343A3F" transform="translate(517.000000, 3359.500000) rotate(-360.000000) translate(-517.000000, -3359.500000) " x="501" y="3358" width="32" height="3"></rect>
            <g id="Group-3" transform="translate(537.500000, 3359.500000) rotate(-360.000000) translate(-537.500000, -3359.500000) translate(531.000000, 3355.000000)">
                <rect id="Rectangle" fill="#343A3F" x="0" y="0" width="9" height="9" rx="4.5"></rect>
                <rect id="Rectangle" fill="#343A3F" x="5" y="0" width="5" height="9"></rect>
                <rect id="Rectangle" fill="#B7B7B7" transform="translate(11.500000, 4.500000) rotate(90.000000) translate(-11.500000, -4.500000) " x="8" y="3" width="7" height="3"></rect>
            </g>
            <text id="Display-(TV-/monitor" font-family="IBMPlexSans, IBM Plex Sans" font-size="12" font-weight="normal" letter-spacing="-0.07294927" fill="#707070">
                <tspan x="596.001967" y="3481">Display (TV /monitor)</tspan>
            </text>
            <g id="display-1" transform="translate(566.000000, 3324.000000)">
                <rect id="Rectangle" stroke="#A2A9B0" stroke-width="3" fill="#C1C7CD" x="1.5" y="1.5" width="176" height="98" rx="2"></rect>
                <rect id="Rectangle" fill="#A2A9B0" x="83" y="99" width="14" height="10"></rect>
                <rect id="Rectangle" fill="#A2A9B0" x="49" y="109" width="83" height="8" rx="2"></rect>
            </g>
        </g>
    </g>
</svg>