<?xml version="1.0" encoding="UTF-8"?>
<svg width="425px" height="282px" viewBox="0 0 425 282" version="1.1" xmlns="http://www.w3.org/2000/svg" xmlns:xlink="http://www.w3.org/1999/xlink">
    <!-- Generator: Sketch 52.6 (67491) - http://www.bohemiancoding.com/sketch -->
    <title>Rectangle</title>
    <desc>Created with Sketch.</desc>
    <g id="Page-1" stroke="none" stroke-width="1" fill="none" fill-rule="evenodd">
        <g id="Setup-Guide" transform="translate(-300.000000, -4448.000000)">
            <rect id="Rectangle" stroke="#DDE1E6" stroke-width="2" fill="#DDE1E6" x="306" y="4449" width="109" height="222" rx="1"></rect>
            <text id="RecordRig-(as-viewed" font-family="IBMPlexSans, IBM Plex Sans" font-size="12" font-weight="normal" letter-spacing="-0.07294927" fill="#697077">
                <tspan x="331.288272" y="4712">RecordRig</tspan>
                <tspan x="300.225967" y="4727">(as viewed from back)</tspan>
            </text>
            <polygon id="Path-2" fill="#A2A9B0" points="391 4672 392.371409 4680 404.822737 4680 406 4672"></polygon>
            <polygon id="Path-2" fill="#A2A9B0" points="317 4672 318.371409 4680 330.822737 4680 332 4672"></polygon>
            <rect id="Rectangle" stroke="#C1C7CD" x="311.5" y="4542.5" width="76" height="9" rx="1"></rect>
            <rect id="Rectangle" stroke="#697077" x="311.5" y="4554.5" width="76" height="9" rx="1"></rect>
            <rect id="Rectangle" stroke="#C1C7CD" x="311.5" y="4566.5" width="76" height="9" rx="1"></rect>
            <rect id="Rectangle" stroke="#C1C7CD" x="311.5" y="4578.5" width="76" height="9" rx="1"></rect>
            <rect id="Rectangle" stroke="#C1C7CD" x="311.5" y="4590.5" width="76" height="9" rx="1"></rect>
            <rect id="Rectangle" stroke="#C1C7CD" x="311.5" y="4602.5" width="76" height="9" rx="1"></rect>
            <rect id="Rectangle" stroke="#C1C7CD" x="311.5" y="4614.5" width="76" height="9" rx="1"></rect>
            <polygon id="Path-3" stroke="#C1C7CD" points="355.312376 4593 363.095291 4593 364.248257 4594.15297 364.248257 4596.88137 354 4596.88137 354 4593.94069"></polygon>
            <polygon id="Path-3" stroke="#697077" fill="#697077" points="355.312376 4557 363.095291 4557 364.248257 4558.15297 364.248257 4560.88137 354 4560.88137 354 4557.94069"></polygon>
            <polygon id="Path-3" stroke="#C1C7CD" points="371 4557 380.095291 4557 381.248257 4558.15297 381.248257 4560.88137 371 4560.88137 371 4557.94069"></polygon>
            <polygon id="Path-3" stroke="#C1C7CD" points="372.312376 4593 380.095291 4593 381.248257 4594.15297 381.248257 4596.88137 371 4596.88137 371 4593.94069"></polygon>
            <rect id="Rectangle" stroke="#C1C7CD" x="322.5" y="4556.5" width="13" height="5"></rect>
            <rect id="Rectangle" stroke="#C1C7CD" x="318.5" y="4557.5" width="3" height="3" rx="1.5"></rect>
            <rect id="Rectangle" stroke="#C1C7CD" x="336.5" y="4557.5" width="3" height="3" rx="1.5"></rect>
            <g id="Group-2" transform="translate(469.500000, 4540.000000) rotate(-180.000000) translate(-469.500000, -4540.000000) translate(436.000000, 4517.000000)">
                <rect id="Rectangle" stroke="#343A3F" stroke-width="3" x="1.5" y="4.5" width="47" height="40" rx="20"></rect>
                <rect id="Rectangle" fill="#343A3F" x="23" y="3" width="32" height="3"></rect>
                <g id="Group-3" transform="translate(54.000000, 0.000000)">
                    <rect id="Rectangle" fill="#343A3F" x="0" y="0" width="9" height="9" rx="4.5"></rect>
                    <rect id="Rectangle" fill="#343A3F" x="5" y="0" width="5" height="9"></rect>
                    <rect id="Rectangle" fill="#B7B7B7" transform="translate(11.500000, 4.500000) rotate(90.000000) translate(-11.500000, -4.500000) " x="8" y="3" width="7" height="3"></rect>
                </g>
            </g>
            <rect id="Rectangle" fill="#343A3F" transform="translate(493.000000, 4518.500000) rotate(-360.000000) translate(-493.000000, -4518.500000) " x="477" y="4517" width="32" height="3"></rect>
            <g id="Group-3" transform="translate(513.500000, 4518.500000) rotate(-360.000000) translate(-513.500000, -4518.500000) translate(507.000000, 4514.000000)">
                <rect id="Rectangle" fill="#343A3F" x="0" y="0" width="9" height="9" rx="4.5"></rect>
                <rect id="Rectangle" fill="#343A3F" x="5" y="0" width="5" height="9"></rect>
                <rect id="Rectangle" fill="#B7B7B7" transform="translate(11.500000, 4.500000) rotate(90.000000) translate(-11.500000, -4.500000) " x="8" y="3" width="7" height="3"></rect>
            </g>
            <text id="Display-2-(TV-/monit" font-family="IBMPlexSans, IBM Plex Sans" font-size="12" font-weight="normal" letter-spacing="-0.07294927" fill="#707070">
                <tspan x="571.058917" y="4602">Display 2 (TV /monitor)</tspan>
            </text>
            <g id="display-1" transform="translate(546.000000, 4450.000000)">
                <rect id="Rectangle" stroke="#A2A9B0" stroke-width="3" fill="#C1C7CD" x="1.5" y="1.5" width="176" height="98" rx="2"></rect>
                <rect id="Rectangle" fill="#A2A9B0" x="83" y="99" width="14" height="10"></rect>
                <rect id="Rectangle" fill="#A2A9B0" x="49" y="109" width="83" height="8" rx="2"></rect>
            </g>
        </g>
    </g>
</svg>