<?xml version="1.0" encoding="UTF-8"?>
<svg width="422px" height="286px" viewBox="0 0 422 286" version="1.1" xmlns="http://www.w3.org/2000/svg" xmlns:xlink="http://www.w3.org/1999/xlink">
    <!-- Generator: Sketch 52.6 (67491) - http://www.bohemiancoding.com/sketch -->
    <title>Rectangle</title>
    <desc>Created with Sketch.</desc>
    <g id="Page-1" stroke="none" stroke-width="1" fill="none" fill-rule="evenodd">
        <g id="Setup-Guide" transform="translate(-334.000000, -2561.000000)">
            <rect id="Rectangle" stroke="#DDE1E6" stroke-width="2" fill="#DDE1E6" x="339" y="2562" width="109" height="222" rx="1"></rect>
            <text id="RecordRig-(as-viewed" font-family="IBMPlexSans, IBM Plex Sans" font-size="12" font-weight="normal" letter-spacing="-0.07294927" fill="#697077">
                <tspan x="365.288272" y="2829">RecordRig</tspan>
                <tspan x="334.225967" y="2844">(as viewed from back)</tspan>
            </text>
            <polygon id="Path-2" fill="#A2A9B0" points="424 2785 425.371409 2793 437.822737 2793 439 2785"></polygon>
            <polygon id="Path-2" fill="#A2A9B0" points="350 2785 351.371409 2793 363.822737 2793 365 2785"></polygon>
            <rect id="Rectangle" stroke="#C1C7CD" x="344.5" y="2655.5" width="76" height="9" rx="1"></rect>
            <rect id="Rectangle" stroke="#C1C7CD" x="344.5" y="2667.5" width="76" height="9" rx="1"></rect>
            <rect id="Rectangle" stroke="#C1C7CD" x="344.5" y="2679.5" width="76" height="9" rx="1"></rect>
            <rect id="Rectangle" stroke="#C1C7CD" x="344.5" y="2691.5" width="76" height="9" rx="1"></rect>
            <rect id="Rectangle" stroke="#697077" x="344.5" y="2703.5" width="76" height="9" rx="1"></rect>
            <rect id="Rectangle" stroke="#C1C7CD" x="344.5" y="2715.5" width="76" height="9" rx="1"></rect>
            <rect id="Rectangle" stroke="#C1C7CD" x="344.5" y="2727.5" width="76" height="9" rx="1"></rect>
            <polygon id="Path-3" stroke="#C1C7CD" points="388.312376 2706 396.095291 2706 397.248257 2707.15297 397.248257 2709.88137 387 2709.88137 387 2706.94069"></polygon>
            <polygon id="Path-3" stroke="#C1C7CD" points="388.312376 2670 396.095291 2670 397.248257 2671.15297 397.248257 2673.88137 387 2673.88137 387 2670.94069"></polygon>
            <polygon id="Path-3" stroke="#C1C7CD" points="404 2670 413.095291 2670 414.248257 2671.15297 414.248257 2673.88137 404 2673.88137 404 2670.94069"></polygon>
            <polygon id="Path-3" stroke="#697077" fill="#697077" points="405.312376 2706 413.095291 2706 414.248257 2707.15297 414.248257 2709.88137 404 2709.88137 404 2706.94069"></polygon>
            <rect id="Rectangle" stroke="#C1C7CD" x="355.5" y="2669.5" width="13" height="5"></rect>
            <rect id="Rectangle" stroke="#C1C7CD" x="351.5" y="2670.5" width="3" height="3" rx="1.5"></rect>
            <rect id="Rectangle" stroke="#C1C7CD" x="369.5" y="2670.5" width="3" height="3" rx="1.5"></rect>
            <g id="Group-2" transform="translate(504.500000, 2726.000000) rotate(-180.000000) translate(-504.500000, -2726.000000) translate(471.000000, 2703.000000)">
                <rect id="Rectangle" stroke="#343A3F" stroke-width="3" x="1.5" y="1.5" width="47" height="40" rx="20"></rect>
                <rect id="Rectangle" fill="#343A3F" x="23" y="40" width="32" height="3"></rect>
                <g id="Group-3" transform="translate(54.000000, 37.000000)">
                    <rect id="Rectangle" fill="#343A3F" x="0" y="0" width="9" height="9" rx="4.5"></rect>
                    <rect id="Rectangle" fill="#343A3F" x="5" y="0" width="5" height="9"></rect>
                    <rect id="Rectangle" fill="#B7B7B7" transform="translate(11.500000, 4.500000) rotate(90.000000) translate(-11.500000, -4.500000) " x="8" y="3" width="7" height="3"></rect>
                </g>
            </g>
            <rect id="Rectangle" fill="#343A3F" transform="translate(528.000000, 2747.500000) rotate(-360.000000) translate(-528.000000, -2747.500000) " x="512" y="2746" width="32" height="3"></rect>
            <g id="Group-3" transform="translate(548.500000, 2747.500000) rotate(-360.000000) translate(-548.500000, -2747.500000) translate(542.000000, 2743.000000)">
                <rect id="Rectangle" fill="#343A3F" x="0" y="0" width="9" height="9" rx="4.5"></rect>
                <rect id="Rectangle" fill="#343A3F" x="5" y="0" width="5" height="9"></rect>
                <rect id="Rectangle" fill="#B7B7B7" transform="translate(11.500000, 4.500000) rotate(90.000000) translate(-11.500000, -4.500000) " x="8" y="3" width="7" height="3"></rect>
            </g>
            <text id="Display-(TV-/monitor" font-family="IBMPlexSans, IBM Plex Sans" font-size="12" font-weight="normal" letter-spacing="-0.07294927" fill="#707070">
                <tspan x="609.001967" y="2834">Display (TV /monitor)</tspan>
            </text>
            <g id="display-1" transform="translate(577.000000, 2677.000000)">
                <rect id="Rectangle" stroke="#A2A9B0" stroke-width="3" fill="#C1C7CD" x="1.5" y="1.5" width="176" height="98" rx="2"></rect>
                <rect id="Rectangle" fill="#A2A9B0" x="83" y="99" width="14" height="10"></rect>
                <rect id="Rectangle" fill="#A2A9B0" x="49" y="109" width="83" height="8" rx="2"></rect>
            </g>
        </g>
    </g>
</svg>