<svg xmlns="http://www.w3.org/2000/svg" viewBox="0 0 32 64"><title>shopping--bag</title><path d="M25.8 11.4c-0.1-0.1-0.1-0.2-0.2-0.2c-0.1 0-0.1-0.1-0.2-0.1c0 0-0.1-0.1-0.2-0.1c-0.1 0-0.1 0-0.2 0h-2.1h-0.9v2v-6c0-0.4-0.1-0.8-0.2-1.1c-0.2-0.4-0.4-0.7-0.7-1c-0.3-0.3-0.6-0.5-1-0.7c-0.3-0.1-0.7-0.2-1.1-0.2h-6c-0.4 0-0.8 .1-1.1 .2c-0.4 .2-0.7 .4-1 .7c-0.3 .3-0.5 .6-0.7 1c-0.1 .3-0.2 .7-0.2 1.1v5.2v-1.2h2.1h-5.1c-0.1 0-0.3 0-0.4 .1c-0.2 0-0.3 .1-0.4 .2c-0.1 .2-0.1 .3-0.2 .4c0 .2 0 .3 0 .4l-1.1 12.2c0 .2 .1 .5 .2 .7c.1 .2 .3 .4 .5 .5c.1 .2 .4 .3 .6 .4c.2 .1 .4 .1 .7 .1h18.2c.3 0 .5 0 .7-0.1c.3-0.1 .5-0.2 .7-0.4c.1-0.1 .3-0.3 .4-0.5c.1-0.2 .2-0.5 .2-0.7l-1.1-12.2c0 0 0-0.1 0-0.2c0 0 0-0.1 0-0.2c-0.1 0-0.1-0.1-0.1-0.2c-0.1 0-0.1-0.1-0.1-0.2Zm-13.8-4.4c0-0.1 0-0.3 .1-0.4c0-0.1 .1-0.2 .2-0.3c.1-0.1 .2-0.2 .3-0.2c.1-0.1 .3-0.1 .4-0.1h6c.1 0 .3 0 .4 .1c.1 0 .2 .1 .3 .2c.1 .1 .2 .2 .2 .3c.1 .1 .1 .3 .1 .4v4h-8Zm13.1 17h-18.2l1.3-11h15.6Z" transform="translate(0,32)"/><rect data-name="&lt;Transparent Rectangle&gt;" class="cls-1" width="32" height="32" fill="none"/><path d="M3 0c0 0-6 0-6 0c0 0 0-3 3-3c3 0 3 3 3 3Z" transform="translate(16,-3)"/><path d="M3 0c0 0 0 3-3 3c-3 0-3-3-3-3c0 0 6 0 6 0Z" transform="translate(16,-3)"/></svg>